<svg width="11" height="12" viewBox="0 0 11 12" fill="none" xmlns="http://www.w3.org/2000/svg">
<path d="M0.762695 11.2083C3.21743 8.66458 7.75533 8.54479 10.2364 11.2083M8.12585 3.39583C8.12585 4.83333 6.94691 6 5.49112 6C5.14518 6.00055 4.80253 5.93359 4.48276 5.80297C4.163 5.67234 3.8724 5.4806 3.62759 5.23873C3.38278 4.99686 3.18856 4.70959 3.05605 4.39337C2.92353 4.07714 2.85533 3.73817 2.85533 3.39583C2.85533 1.95833 4.03427 0.791665 5.49112 0.791665C5.83697 0.791254 6.17951 0.85831 6.49915 0.988998C6.81879 1.11969 7.10927 1.31144 7.35397 1.5533C7.59866 1.79516 7.79279 2.08238 7.92523 2.39854C8.05768 2.71469 8.12585 3.05358 8.12585 3.39583Z" stroke="#8A9197" stroke-width="1.5" stroke-linecap="round" stroke-linejoin="round"/>
</svg>
