<svg width="28" height="34" viewBox="0 0 28 34" fill="none" xmlns="http://www.w3.org/2000/svg">
<path d="M12.503 0.776223L27.003 3.77622C27.583 3.89622 28 4.40822 28 5.00022V29.0002C28 29.2878 27.9008 29.5666 27.7192 29.7895C27.5376 30.0125 27.2846 30.166 27.003 30.2242L12.503 33.2242C12.3214 33.2618 12.1337 33.2584 11.9536 33.2144C11.7734 33.1705 11.6053 33.087 11.4614 32.97C11.3176 32.853 11.2015 32.7055 11.1217 32.5381C11.0419 32.3707 11.0003 32.1877 11 32.0022V2.00022C10.9999 1.81453 11.0411 1.63115 11.1207 1.46339C11.2003 1.29564 11.3163 1.14773 11.4603 1.03041C11.6042 0.913099 11.7725 0.829326 11.9529 0.785184C12.1332 0.741042 12.3212 0.73864 12.503 0.776223ZM8 3.00022V5.50022H2.5V28.5002H8V31.0002H1.25C0.940714 31.0001 0.64245 30.8854 0.412863 30.6781C0.183276 30.4709 0.0386708 30.1859 0.00699997 29.8782L0 29.7512V4.25122C0 3.60322 0.492 3.07122 1.122 3.00722L1.25 3.00022H8ZM13.5 3.53622V30.4662L25.5 27.9832V6.01822L13.5 3.53622ZM16.5 15.5012C16.8978 15.5012 17.2794 15.6593 17.5607 15.9406C17.842 16.2219 18 16.6034 18 17.0012C18 17.399 17.842 17.7806 17.5607 18.0619C17.2794 18.3432 16.8978 18.5012 16.5 18.5012C16.1022 18.5012 15.7206 18.3432 15.4393 18.0619C15.158 17.7806 15 17.399 15 17.0012C15 16.6034 15.158 16.2219 15.4393 15.9406C15.7206 15.6593 16.1022 15.5012 16.5 15.5012Z" fill="#7048E8"/>
</svg>
